<?xml version="1.0" standalone="no"?>
<!DOCTYPE svg PUBLIC "-//W3C//DTD SVG 20010904//EN"
 "http://www.w3.org/TR/2001/REC-SVG-20010904/DTD/svg10.dtd">
<svg version="1.0" xmlns="http://www.w3.org/2000/svg"
 width="256.000000pt" height="256.000000pt" viewBox="0 0 256.000000 256.000000"
 preserveAspectRatio="xMidYMid meet">
<metadata>
Created by potrace 1.14, written by Peter Selinger 2001-2017
</metadata>
<g transform="translate(0.000000,256.000000) scale(0.100000,-0.100000)"
fill="#000000" stroke="none">
<path d="M0 1280 l0 -1280 1280 0 1280 0 0 1280 0 1280 -1280 0 -1280 0 0
-1280z m959 553 c205 -517 355 -883 361 -883 4 0 93 233 198 518 l190 517 261
3 c228 2 261 0 261 -13 0 -11 -11 -15 -42 -15 -61 0 -117 -18 -144 -45 l-24
-24 0 -611 c0 -601 0 -610 20 -630 27 -27 52 -36 128 -45 43 -5 62 -11 62 -21
0 -12 -56 -14 -350 -14 -294 0 -350 2 -350 14 0 9 17 16 53 21 68 9 113 28
126 53 13 25 15 1205 2 1182 -7 -12 -421 -1122 -463 -1243 -9 -23 -16 -27 -48
-27 -37 0 -38 1 -65 67 -15 38 -75 185 -135 328 -59 143 -165 401 -236 572
-71 172 -133 313 -137 313 -5 0 -7 -237 -5 -527 l3 -528 28 -56 c34 -69 79
-103 170 -125 123 -31 81 -39 -221 -42 -233 -2 -282 0 -282 11 0 9 25 21 64
31 77 21 136 67 162 128 18 40 19 81 22 543 3 442 1 505 -13 542 -29 74 -118
133 -204 133 -21 0 -31 5 -31 15 0 13 39 15 288 15 l288 0 63 -157z"/>
</g>
</svg>
